<svg xmlns="http://www.w3.org/2000/svg" xmlns:xlink="http://www.w3.org/1999/xlink" width="500" zoomAndPan="magnify" viewBox="0 0 375 374.999991" height="500" preserveAspectRatio="xMidYMid meet" version="1.0"><defs><clipPath id="ba7dbe5d20"><path d="M 172.011719 112.5 L 297.261719 112.5 L 297.261719 262.5 L 172.011719 262.5 Z M 172.011719 112.5 " clip-rule="nonzero"/></clipPath><clipPath id="c4f3048caf"><path d="M 93.636719 112.5 L 172.386719 112.5 L 172.386719 262.5 L 93.636719 262.5 Z M 93.636719 112.5 " clip-rule="nonzero"/></clipPath><clipPath id="906903acc0"><path d="M 137.582031 172.664062 L 172 172.664062 L 172 213.164062 L 137.582031 213.164062 Z M 137.582031 172.664062 " clip-rule="nonzero"/></clipPath></defs><g clip-path="url(#ba7dbe5d20)"><path fill="#8dc63f" d="M 272.203125 112.519531 C 286.039062 112.519531 297.25 123.710938 297.25 137.515625 L 297.25 237.492188 C 297.25 251.296875 286.039062 262.488281 272.203125 262.488281 L 272.203125 203.375 L 285.300781 190.304688 L 247.160156 190.304688 L 247.160156 215.300781 L 197.058594 215.300781 L 197.058594 262.484375 C 183.222656 262.484375 172.011719 251.296875 172.011719 237.492188 L 172.011719 137.515625 C 172.011719 123.710938 183.222656 112.519531 197.058594 112.519531 L 197.058594 176.054688 L 182.777344 190.304688 L 222.101562 190.304688 L 222.101562 190.324219 L 222.113281 190.304688 L 222.113281 165.3125 L 272.203125 165.3125 Z M 272.203125 112.519531 " fill-opacity="1" fill-rule="nonzero"/></g><g clip-path="url(#c4f3048caf)"><path fill="#ffffff" d="M 149.347656 112.5 C 136.859375 112.5 126.699219 122.660156 126.699219 135.15625 L 126.699219 145.5625 L 116.292969 145.5625 C 103.800781 145.5625 93.636719 155.722656 93.636719 168.210938 L 93.636719 239.84375 C 93.636719 252.339844 103.800781 262.5 116.292969 262.5 C 128.785156 262.5 138.949219 252.339844 138.949219 239.84375 L 138.949219 157.804688 L 149.355469 157.804688 C 161.847656 157.804688 172.007812 147.644531 172.007812 135.152344 C 172.007812 122.65625 161.84375 112.5 149.347656 112.5 Z M 126.699219 239.84375 C 126.699219 245.582031 122.03125 250.25 116.292969 250.25 C 110.554688 250.25 105.886719 245.582031 105.886719 239.84375 L 105.886719 168.210938 C 105.886719 162.472656 110.554688 157.804688 116.292969 157.804688 L 126.699219 157.804688 Z M 149.347656 145.5625 L 138.941406 145.5625 L 138.941406 135.15625 C 138.941406 129.417969 143.609375 124.75 149.347656 124.75 C 155.085938 124.75 159.753906 129.417969 159.753906 135.15625 C 159.761719 140.894531 155.085938 145.5625 149.347656 145.5625 Z M 149.347656 145.5625 " fill-opacity="1" fill-rule="nonzero"/></g><g clip-path="url(#906903acc0)"><path fill="#ffffff" d="M 155.402344 181.847656 L 155.402344 181.292969 C 154.90625 181.21875 154.792969 181.078125 154.773438 180.480469 C 154.75 179.648438 154.878906 178.847656 155.167969 178.070312 C 156.183594 175.300781 158.074219 173.46875 160.984375 172.789062 C 161.507812 172.664062 162.066406 172.703125 162.609375 172.675781 C 162.890625 172.664062 163.015625 172.816406 163.039062 173.097656 C 163.140625 174.210938 162.921875 175.253906 162.382812 176.230469 C 161.933594 177.050781 161.390625 177.820312 160.855469 178.585938 C 159.875 179.992188 158.429688 180.667969 156.828125 181.089844 C 156.671875 181.128906 156.511719 181.152344 156.339844 181.191406 L 156.339844 181.824219 C 156.996094 181.664062 157.632812 181.539062 158.253906 181.359375 C 159.910156 180.875 161.578125 180.488281 163.316406 180.613281 C 166.273438 180.820312 168.660156 182.101562 170.441406 184.484375 C 170.492188 184.554688 170.539062 184.628906 170.585938 184.703125 C 170.890625 185.195312 170.855469 185.390625 170.363281 185.691406 C 168.546875 186.8125 167.421875 188.425781 166.980469 190.507812 C 166.21875 194.101562 167.804688 197.800781 170.925781 199.765625 C 171.128906 199.894531 171.339844 200.011719 171.535156 200.148438 C 171.90625 200.402344 171.984375 200.578125 171.78125 200.976562 C 171.160156 202.214844 170.554688 203.460938 169.859375 204.660156 C 168.808594 206.480469 167.578125 208.183594 166.054688 209.644531 C 165.550781 210.132812 164.925781 210.496094 164.355469 210.914062 L 164.175781 211.050781 C 164.40625 211.160156 164.617188 211.246094 164.8125 211.359375 C 164.894531 211.410156 164.953125 211.507812 165.023438 211.585938 C 164.941406 211.664062 164.851562 211.738281 164.761719 211.808594 C 164.714844 211.832031 164.660156 211.847656 164.605469 211.847656 C 163.96875 211.933594 163.324219 211.96875 162.703125 212.117188 C 161.53125 212.398438 160.335938 212.300781 159.15625 212.410156 C 158.507812 212.46875 157.847656 212.410156 157.195312 212.433594 C 155.769531 212.488281 154.339844 212.539062 152.917969 212.636719 C 151.613281 212.726562 150.320312 212.917969 149.015625 212.992188 C 148.035156 213.042969 147.054688 213.03125 146.078125 212.957031 C 145.242188 212.890625 144.414062 212.730469 143.59375 212.554688 C 142.90625 212.40625 142.257812 212.121094 141.796875 211.550781 C 141.695312 211.425781 141.597656 211.230469 141.625 211.09375 C 141.644531 210.996094 141.867188 210.894531 142.011719 210.871094 C 143.25 210.675781 144.492188 210.503906 145.816406 210.308594 C 145.726562 210.257812 145.640625 210.203125 145.558594 210.140625 C 144.546875 209.242188 143.726562 208.1875 143.019531 207.035156 C 142.257812 205.785156 141.4375 204.578125 140.660156 203.34375 C 140.40625 202.933594 140.183594 202.507812 139.996094 202.0625 C 139.875 201.78125 139.875 201.449219 139.765625 201.15625 C 139.457031 200.316406 139.085938 199.496094 138.800781 198.648438 C 138.347656 197.292969 137.984375 195.917969 137.832031 194.480469 C 137.601562 192.21875 137.785156 190 138.574219 187.867188 C 140.015625 183.960938 142.75 181.433594 146.828125 180.457031 C 148.546875 180.046875 150.226562 180.308594 151.867188 180.957031 C 152.695312 181.28125 153.5625 181.511719 154.421875 181.75 C 154.722656 181.835938 155.046875 181.816406 155.402344 181.847656 Z M 144.15625 185.824219 L 144.226562 185.925781 C 144.726562 185.648438 145.214844 185.34375 145.730469 185.09375 C 146.078125 184.925781 146.457031 184.824219 146.828125 184.707031 C 147.011719 184.652344 147.207031 184.644531 147.390625 184.585938 C 148.003906 184.398438 148.609375 184.183594 149.230469 184.019531 C 149.375 183.980469 149.660156 184.058594 149.703125 184.160156 C 149.816406 184.40625 150.078125 184.535156 150.109375 184.859375 C 150.140625 185.183594 150.351562 185.476562 150.464844 185.792969 C 150.601562 186.179688 150.765625 186.519531 151.179688 186.714844 C 151.394531 186.8125 151.722656 186.84375 151.757812 187.203125 C 151.761719 187.261719 151.933594 187.335938 152.027344 187.335938 C 152.203125 187.34375 152.371094 187.320312 152.539062 187.265625 C 152.855469 187.160156 152.941406 187.246094 152.914062 187.578125 C 152.902344 187.726562 153.039062 187.890625 153.109375 188.046875 C 153.300781 187.941406 153.542969 187.878906 153.664062 187.71875 C 153.820312 187.511719 153.941406 187.4375 154.15625 187.609375 C 154.222656 187.664062 154.308594 187.777344 154.347656 187.761719 C 154.6875 187.617188 155.125 187.535156 155.328125 187.277344 C 155.648438 186.875 156.097656 186.746094 156.480469 186.488281 C 156.558594 186.433594 156.785156 186.472656 156.851562 186.546875 C 157.121094 186.871094 157.230469 186.902344 157.609375 186.71875 C 157.734375 186.660156 157.914062 186.609375 158.03125 186.652344 C 158.53125 186.851562 158.949219 186.675781 159.351562 186.410156 C 159.480469 186.320312 159.601562 186.222656 159.71875 186.113281 C 159.816406 186.015625 159.878906 185.855469 159.992188 185.804688 C 160.972656 185.371094 161.953125 184.941406 162.945312 184.542969 C 163.9375 184.148438 164.949219 183.78125 166.027344 183.707031 C 166.132812 183.699219 166.242188 183.757812 166.371094 183.789062 C 166.457031 183.765625 166.59375 183.679688 166.699219 183.703125 C 167.121094 183.800781 167.574219 183.863281 167.945312 184.066406 C 168.472656 184.359375 168.949219 184.757812 169.429688 185.128906 C 169.632812 185.285156 169.804688 185.382812 170.0625 185.160156 C 168.832031 183.441406 167.324219 182.304688 165.085938 182.484375 C 165.582031 182.40625 165.675781 181.964844 165.925781 181.652344 C 164.828125 181.222656 162.667969 181.324219 161.515625 181.851562 L 162.925781 181.851562 C 162.859375 181.929688 162.84375 181.960938 162.816406 181.972656 C 162.738281 182.007812 162.65625 182.039062 162.574219 182.066406 C 161.109375 182.496094 159.648438 182.949219 158.179688 183.34375 C 156.945312 183.675781 155.707031 183.761719 154.511719 183.160156 C 154.398438 183.109375 154.28125 183.085938 154.160156 183.085938 C 153.8125 183.074219 153.539062 182.945312 153.335938 182.617188 L 154.226562 182.617188 C 154.210938 182.5625 154.175781 182.527344 154.125 182.511719 C 153.21875 182.160156 152.300781 181.839844 151.410156 181.460938 C 149.96875 180.84375 148.492188 180.636719 146.957031 180.949219 C 145.722656 181.203125 144.589844 181.660156 143.792969 182.703125 C 143.375 183.242188 143.113281 183.851562 143.007812 184.527344 C 143.105469 184.472656 143.195312 184.40625 143.273438 184.328125 C 143.929688 183.738281 144.570312 183.132812 145.246094 182.566406 C 145.757812 182.140625 146.367188 181.886719 147.019531 181.753906 C 147.695312 181.613281 148.613281 182.050781 148.832031 182.601562 C 147.894531 182.855469 147.03125 183.257812 146.238281 183.8125 C 145.429688 184.371094 144.722656 185.027344 144.15625 185.824219 Z M 167.140625 200.035156 C 167.3125 200.035156 167.429688 200.015625 167.542969 200.039062 C 167.820312 200.097656 168.09375 200.175781 168.367188 200.242188 C 168.402344 200.25 168.433594 200.242188 168.460938 200.21875 C 168.660156 200 168.863281 200.058594 169.066406 200.246094 L 169.382812 199.964844 C 168.882812 199.363281 168.347656 198.816406 168.03125 198.101562 C 168.449219 198.75 169.097656 199.125 169.710938 199.527344 C 170.320312 199.929688 170.898438 200.390625 171.625 200.585938 C 171.574219 200.476562 171.496094 200.390625 171.394531 200.324219 C 170.8125 199.882812 170.183594 199.492188 169.652344 199 C 167.308594 196.820312 166.410156 194.09375 166.671875 190.941406 C 166.6875 190.769531 166.625 190.59375 166.601562 190.421875 L 166.460938 190.4375 C 166.101562 191.589844 165.941406 192.761719 166.128906 193.976562 L 166.023438 193.984375 C 165.921875 193.242188 165.820312 192.496094 165.714844 191.730469 C 165.472656 191.882812 165.304688 192.046875 165.296875 192.335938 C 165.289062 192.664062 165.261719 192.988281 165.253906 193.3125 C 165.242188 193.582031 165.246094 193.855469 165.234375 194.125 C 165.230469 194.277344 165.210938 194.429688 165.203125 194.5625 L 165.492188 195.699219 L 164.714844 195.90625 C 164.78125 196.09375 164.816406 196.246094 164.878906 196.386719 C 164.957031 196.574219 165.007812 196.863281 165.148438 196.917969 C 165.449219 197.042969 165.441406 197.183594 165.328125 197.355469 C 165.4375 197.5625 165.519531 197.734375 165.613281 197.902344 C 165.664062 198.003906 165.726562 198.097656 165.796875 198.1875 C 165.980469 198.398438 166.175781 198.601562 166.367188 198.808594 C 166.558594 199.011719 166.75 199.230469 166.953125 199.429688 C 167.128906 199.597656 167.304688 199.746094 167.140625 200.035156 Z M 161.195312 176.582031 L 161.335938 176.652344 C 161.589844 176.335938 161.863281 176.035156 162.09375 175.703125 C 162.652344 174.898438 162.773438 173.972656 162.785156 173.023438 C 162.785156 172.789062 162.613281 172.761719 162.441406 172.789062 C 162.046875 172.851562 161.65625 172.929688 161.257812 173 L 161.253906 173.042969 L 161.492188 173.089844 C 159.242188 174.25 158.210938 174.929688 158 175.328125 L 162.394531 173.324219 L 162.460938 173.398438 C 162.441406 173.5 162.414062 173.601562 162.378906 173.703125 C 162.023438 174.53125 161.660156 175.355469 161.300781 176.1875 C 161.253906 176.316406 161.21875 176.445312 161.195312 176.582031 Z M 153.410156 210.394531 C 154.945312 210.601562 156.445312 210.464844 157.945312 210.304688 C 156.96875 209.648438 154.402344 209.691406 153.410156 210.394531 Z M 159.167969 188.585938 C 159.1875 188.648438 159.21875 188.707031 159.261719 188.757812 C 159.441406 188.941406 159.628906 189.113281 159.828125 189.269531 C 159.894531 189.324219 160.0625 189.359375 160.097656 189.324219 C 160.335938 189.085938 160.546875 188.835938 160.742188 188.566406 C 160.789062 188.5 160.730469 188.324219 160.667969 188.226562 C 160.53125 188 160.375 187.78125 160.199219 187.578125 C 160.132812 187.5 159.953125 187.40625 159.914062 187.4375 C 159.554688 187.71875 159.207031 188.019531 159.167969 188.585938 Z M 156.972656 175.664062 L 159.367188 173.59375 C 158.34375 174.019531 157.574219 174.746094 156.972656 175.664062 Z M 159.582031 177.058594 C 159.863281 177.066406 160.28125 176.722656 160.320312 176.488281 C 160.347656 176.3125 160.269531 176.214844 160.085938 176.226562 C 159.816406 176.238281 159.484375 176.507812 159.402344 176.769531 C 159.34375 176.972656 159.441406 177.050781 159.582031 177.058594 Z M 141.078125 191.320312 C 141.070312 191.148438 141.082031 191.066406 141.058594 191 C 141.019531 190.929688 140.972656 190.867188 140.917969 190.808594 C 140.859375 190.851562 140.769531 190.890625 140.753906 190.941406 C 140.691406 191.210938 140.640625 191.484375 140.605469 191.757812 C 140.621094 191.832031 140.664062 191.882812 140.734375 191.914062 C 140.8125 191.910156 140.871094 191.878906 140.910156 191.8125 C 140.988281 191.625 141.042969 191.429688 141.078125 191.320312 Z M 162.035156 187.1875 L 161.445312 187.644531 C 161.460938 187.957031 161.507812 188.019531 161.746094 188.019531 C 162.042969 188.019531 162.054688 187.859375 161.976562 187.632812 C 161.960938 187.597656 162.03125 187.542969 162.035156 187.492188 C 162.042969 187.390625 162.042969 187.289062 162.035156 187.1875 Z M 162.476562 187.304688 C 162.195312 187.566406 162.226562 187.78125 162.535156 187.90625 C 162.515625 187.710938 162.5 187.539062 162.476562 187.304688 Z M 162.476562 187.304688 " fill-opacity="1" fill-rule="nonzero"/></g></svg>